<svg width="777" height="512" viewBox="0 0 777 512" fill="none" xmlns="http://www.w3.org/2000/svg">
<path opacity="0.02" d="M1924.45 718.075C2065.33 772.611 2069.45 880.509 2053.9 927.641L1860.27 1650.29L-626.259 984.03L-432.625 261.378C-422.523 212.787 -365.002 121.407 -215.73 144.616C-29.1403 173.627 -15.6798 103.785 26.9584 55.7511C69.5963 7.71698 128.571 -35.9394 271.971 49.7017C415.37 135.343 563.372 190.739 707.347 117.394C822.527 58.7188 914.89 73.3245 947.919 82.1744C980.947 91.0244 1068.24 124.557 1138.65 232.962C1226.66 368.467 1382.54 394.494 1549.54 392.026C1716.55 389.559 1745.8 456.854 1758.71 519.771C1771.61 582.689 1748.35 649.905 1924.45 718.075Z" fill="black"/>
</svg>
