<svg width="777" height="512" viewBox="0 0 777 512" fill="none" xmlns="http://www.w3.org/2000/svg">
<path opacity="0.02" d="M1127.45 718.075C1268.33 772.611 1272.45 880.509 1256.9 927.641L1063.27 1650.29L-1423.26 984.03L-1229.62 261.378C-1219.52 212.787 -1162 121.407 -1012.73 144.616C-826.14 173.627 -812.68 103.785 -770.042 55.7511C-727.404 7.71698 -668.429 -35.9394 -525.029 49.7017C-381.63 135.343 -233.628 190.739 -89.653 117.394C25.5271 58.7188 117.89 73.3245 150.919 82.1744C183.947 91.0244 271.239 124.557 341.65 232.962C429.664 368.467 585.535 394.494 752.543 392.026C919.551 389.559 948.797 456.854 961.706 519.771C974.614 582.689 951.351 649.905 1127.45 718.075Z" fill="black"/>
</svg>
